<svg width="265.2" height="73.7" viewBox="0 0 265.2 73.7" xmlns="http://www.w3.org/2000/svg"><g id="svgGroup" stroke-linecap="round" fill-rule="evenodd" font-size="9pt" stroke="#ffffff" stroke-width="0.25mm" fill="#ffffff" style="stroke:#ffffff;stroke-width:0.25mm;fill:#ffffff"><path d="M 254 73.7 L 220.7 73.7 L 210.7 63.7 L 218.8 55.4 L 226.2 62.7 L 248.2 62.7 L 252.6 58.3 L 252.6 45.1 L 248.2 40.7 L 226.7 40.7 L 226.7 29.7 L 248.2 29.7 L 252.6 25.3 L 252.6 15.4 L 248.2 11 L 228.1 11 L 220.7 18.3 L 212.6 10 L 222.6 0 L 254 0 L 265.2 11.1 L 265.2 28.5 L 258.4 35.2 L 265.2 41.9 L 265.2 62.6 L 254 73.7 Z M 181.7 73.7 L 163 73.7 L 139 0 L 152.3 0 L 171.1 61.8 L 173.5 61.8 L 192.4 0 L 205.7 0 L 181.7 73.7 Z M 13.3 73.7 L 0 73.7 L 24 0 L 42.7 0 L 66.7 73.7 L 53.4 73.7 L 47.9 55.8 L 18.8 55.8 L 13.3 73.7 Z M 118.2 73.7 L 75.7 73.7 L 75.7 0 L 118.2 0 L 133.7 15.5 L 133.7 58.2 L 118.2 73.7 Z M 88.2 11 L 88.2 62.7 L 112.3 62.7 L 121.1 53.9 L 121.1 19.8 L 112.3 11 L 88.2 11 Z M 32.1 11.9 L 22.1 44.8 L 44.5 44.8 L 34.5 11.9 L 32.1 11.9 Z" vector-effect="non-scaling-stroke"/></g></svg>